<?xml version="1.0" encoding="UTF-8"?>
<svg version="1.1" xmlns="http://www.w3.org/2000/svg" width="512" height="512">
<path d="M0 0 C1.46000011 -0.00418262 2.91999696 -0.00966519 4.3799879 -0.01631981 C8.35594965 -0.03067169 12.33170231 -0.02656214 16.307675 -0.019153 C20.60978893 -0.01439796 24.91185911 -0.02695176 29.21395874 -0.03717041 C37.62841707 -0.05431858 46.04280059 -0.05520666 54.45727185 -0.04995751 C61.30084443 -0.0459069 68.144395 -0.04736992 74.98796654 -0.05270576 C75.96406348 -0.05345419 76.94016042 -0.05420261 77.94583606 -0.05497371 C79.92914243 -0.05650528 81.91244878 -0.05804363 83.89575513 -0.05958868 C102.47224806 -0.07329948 121.04869881 -0.06788617 139.62519076 -0.05640347 C156.59469568 -0.04647402 173.56409152 -0.05940931 190.53357963 -0.08333766 C207.98599129 -0.10776028 225.43835222 -0.11732867 242.89078063 -0.11068493 C252.67770573 -0.10719955 262.464547 -0.10937959 272.25145912 -0.12693596 C280.58332258 -0.1416976 288.91504316 -0.14224186 297.24690393 -0.12486505 C301.49199949 -0.11638493 305.73684025 -0.11413173 309.98192215 -0.1295166 C313.87878031 -0.14346377 317.7751678 -0.13847374 321.67199942 -0.11927737 C323.07094281 -0.11554746 324.46992484 -0.11835092 325.86883352 -0.12888902 C344.17147059 -0.25680349 361.55884283 4.32274625 375.11296082 17.23143005 C391.85747221 35.35490121 392.55501791 55.96955227 392.50920105 79.30296326 C392.51490976 81.92913604 392.52187595 84.55530635 392.52999878 87.18147278 C392.54711458 93.55054302 392.54804181 99.9195143 392.54278588 106.28860155 C392.53872904 111.47075374 392.54020561 116.65287688 392.54553413 121.83502769 C392.54628256 122.57521893 392.54703098 123.31541017 392.54780208 124.07803145 C392.54933371 125.58219281 392.55087206 127.08635417 392.55241705 128.59051552 C392.56611623 142.66752757 392.56072284 156.74448391 392.54923183 170.82149466 C392.53930441 183.66860245 392.55223621 196.51556612 392.57616603 209.36265168 C392.60061423 222.58882059 392.61015075 235.81492253 392.6035133 249.04111356 C392.60003346 256.45266645 392.60217081 263.86410863 392.61976433 271.2756443 C392.63455824 277.58549471 392.63502884 283.89515643 392.61769342 290.20500342 C392.60923914 293.41725955 392.60910348 296.62911415 392.62234497 299.84136391 C392.70563485 321.72905763 391.24222497 340.44590268 375.45671082 357.1025238 C361.94452748 370.23313386 347.38498828 374.85418355 328.78044128 374.78831482 C327.37471436 374.79407066 325.96899237 374.80115884 324.5632782 374.8094635 C321.5584696 374.8244722 318.55383746 374.83035998 315.54899216 374.82893562 C310.79044134 374.82688671 306.03212476 374.84656896 301.27363586 374.86911011 C292.0331437 374.90992951 282.79267066 374.92865437 273.55210876 374.94528198 C261.78312995 374.96769496 250.01420613 375.00132151 238.24531662 375.05248111 C233.52191603 375.07231228 228.79863948 375.0819766 224.07519889 375.08343327 C221.13133314 375.0861969 218.18753525 375.09705537 215.24369812 375.10994339 C213.24286359 375.11621478 211.24200565 375.11264237 209.24116516 375.10870361 C196.85760836 374.84706304 196.85760836 374.84706304 186.29264832 380.32518005 C183.14146954 383.42345044 179.89779698 386.40011968 176.61930847 389.36302185 C170.66594916 394.78811586 164.97254823 400.44041773 159.32665634 406.18270302 C157.63803665 407.89861797 155.94452916 409.60957432 154.24958801 411.31924438 C149.44039335 416.17057001 144.63439842 421.02495354 139.84440613 425.89524841 C136.88916424 428.89932408 133.92397614 431.8932734 130.95230484 434.88109398 C129.83480031 436.00839938 128.72093387 437.13932494 127.61104965 438.27413368 C116.07059822 450.06833071 105.17978368 457.57449383 88.29264832 457.82518005 C74.68059965 457.72262256 63.04631485 453.55678873 52.85514832 444.35643005 C40.93827485 431.89788052 38.83134805 418.06161096 38.62663269 401.5868988 C38.45022848 394.47049486 38.17080607 388.07215967 33.42155457 382.36424255 C32.8427655 381.91822693 32.26397644 381.4722113 31.66764832 381.01268005 C31.09143738 380.55119568 30.51522644 380.0897113 29.92155457 379.61424255 C23.66322698 375.38818909 17.31233723 375.25382651 9.91764832 375.2118988 C8.31477095 375.18867605 6.71190637 375.16455776 5.10905457 375.13963318 C2.61922429 375.10480186 0.12985855 375.07531464 -2.36018372 375.06175232 C-22.82894492 374.92889138 -38.14968368 370.30661266 -52.89485168 355.38768005 C-68.47495529 338.38293663 -68.341588 318.21010597 -68.29890442 296.47239685 C-68.30461313 293.84622406 -68.31157932 291.22005376 -68.31970215 288.59388733 C-68.33681795 282.22481708 -68.33774518 275.85584581 -68.33248924 269.48675855 C-68.32843241 264.30460637 -68.32990897 259.12248323 -68.3352375 253.94033241 C-68.33636014 252.83004556 -68.33636014 252.83004556 -68.33750545 251.69732866 C-68.33903708 250.1931673 -68.34057543 248.68900594 -68.34212042 247.18484459 C-68.3558196 233.10783254 -68.35042621 219.0308762 -68.3389352 204.95386545 C-68.32900778 192.10675765 -68.34193958 179.25979399 -68.3658694 166.41270842 C-68.3903176 153.18653952 -68.39985411 139.96043758 -68.39321667 126.73424655 C-68.38973683 119.32269366 -68.39187418 111.91125148 -68.4094677 104.49971581 C-68.42426161 98.1898654 -68.42473221 91.88020368 -68.40739679 85.57035669 C-68.3989425 82.35810055 -68.39880685 79.14624595 -68.41204834 75.9339962 C-68.49519464 54.08403223 -66.93580892 34.05881015 -51.05110168 17.37986755 C-36.53071566 3.96429351 -19.31647191 -0.09124501 0 0 Z M-27.89485168 41.38768005 C-32.52257736 47.72860439 -35.01385221 53.18758817 -35.02627945 61.08514786 C-35.03012059 62.00568585 -35.03396174 62.92622384 -35.03791928 63.87465692 C-35.0370528 64.87727303 -35.03618632 65.87988915 -35.03529358 66.91288757 C-35.0382647 67.98478388 -35.04123582 69.05668018 -35.04429698 70.16105819 C-35.05298064 73.75906763 -35.05449195 77.35704378 -35.0559845 80.95506287 C-35.06061288 83.53229849 -35.06563757 86.10953344 -35.07102966 88.68676758 C-35.08459776 95.69304896 -35.09063526 102.69932462 -35.09504032 109.70561695 C-35.09780519 114.08224165 -35.10204298 118.45886415 -35.10654449 122.83548737 C-35.11873493 134.95860785 -35.12903485 147.08172658 -35.13241959 159.20485306 C-35.13263915 159.98039515 -35.13285872 160.75593725 -35.13308494 161.55498062 C-35.13330322 162.33235231 -35.13352149 163.10972399 -35.13374639 163.9106524 C-35.13418985 165.48584 -35.13463641 167.06102761 -35.13508606 168.63621521 C-35.13530749 169.41755859 -35.13552892 170.19890198 -35.13575706 171.00392243 C-35.13970443 183.66224314 -35.15715757 196.32050627 -35.18044558 208.97880474 C-35.20417469 221.98206147 -35.21662214 234.98528933 -35.2177875 247.98856807 C-35.21870336 255.28654668 -35.22443321 262.58445024 -35.24260712 269.88240814 C-35.25964318 276.74751468 -35.26124907 283.61247669 -35.25246811 290.47759819 C-35.25169711 292.99586557 -35.25604871 295.51414056 -35.26592636 298.03238869 C-35.27863043 301.4732748 -35.2727769 304.91365527 -35.26234436 308.35453796 C-35.27040076 309.34823119 -35.27845717 310.34192442 -35.28675771 311.36572957 C-35.21732656 321.17449623 -32.94757984 328.27308771 -26.14485168 335.4384613 C-18.77828308 341.82026292 -10.07798597 342.51035752 -0.67219543 342.5634613 C0.93523925 342.58667945 2.54266114 342.61079756 4.15007019 342.63572693 C6.64877167 342.67059707 9.1470063 342.70006821 11.6459198 342.71360779 C29.00680047 342.82572475 43.18049678 345.91201808 56.35514832 358.07518005 C65.99770192 368.29193089 70.96140652 381.07827141 71.28092957 394.9775238 C71.31670105 396.5253656 71.31670105 396.5253656 71.35319519 398.10447693 C71.39608174 400.24750483 71.42737701 402.39079677 71.44694519 404.53416443 C71.62056852 411.00668071 72.20421912 415.14403973 76.10514832 420.38768005 C80.38569262 423.94919129 84.28774915 424.83806685 89.79655457 424.91893005 C95.84934269 423.52607187 100.30456495 418.45675757 104.50260925 414.16966248 C105.111651 413.5560939 105.72069275 412.94252533 106.34819031 412.31036377 C107.66314705 410.98449496 108.9758162 409.65635422 110.2864151 408.3261776 C112.36799918 406.21425795 114.45633697 404.10923289 116.5466156 402.00592041 C122.48622314 396.0267137 128.41307293 390.03491935 134.33659363 384.03977966 C137.96807833 380.3653348 141.60704117 376.69842575 145.25035858 373.0357151 C146.62945594 371.64612081 148.00563612 370.25362452 149.37870026 368.85806847 C166.95727454 350.99208139 166.95727454 350.99208139 178.48014832 346.51268005 C179.45725769 346.12338318 180.43436707 345.7340863 181.44108582 345.33299255 C185.78943853 343.79002869 189.39460869 343.25987635 194.03036499 343.24291992 C195.24290955 343.23602142 196.4554541 343.22912292 197.70474243 343.22201538 C199.0454863 343.21930089 200.38623033 343.21666371 201.72697449 343.21409607 C203.14151716 343.20778831 204.55605785 343.20102226 205.97059631 343.1938324 C209.01585667 343.17917489 212.06110943 343.1674449 215.10639 343.1578846 C219.92732693 343.14240934 224.74819867 343.11845857 229.5690918 343.09298706 C243.27776462 343.02185035 256.98647497 342.96208735 270.69523621 342.91087341 C278.2672866 342.88251033 285.83927228 342.84709542 293.4112547 342.80421966 C298.19734932 342.77754123 302.98337077 342.75957821 307.76952493 342.74818242 C310.75711123 342.73901215 313.74460922 342.7216294 316.7321434 342.70200348 C318.76404124 342.69104842 320.79598421 342.6897821 322.82791138 342.68887329 C334.01889991 342.60021051 343.29334404 341.56762013 351.83171082 333.8212738 C358.71570198 326.51339155 359.55135914 318.04503269 359.48609924 308.38145447 C359.49077922 307.30614047 359.49545919 306.23082646 359.50028098 305.12292719 C359.51220049 301.53722274 359.50278537 297.95190264 359.49333191 294.36619568 C359.49739895 291.78836851 359.50274157 289.21054308 359.50926208 286.63272095 C359.52257113 280.36838226 359.51973436 274.10415167 359.51102416 267.83980882 C359.50423685 262.74665148 359.50333542 257.65352434 359.50659561 252.56036377 C359.50705531 251.83426168 359.50751501 251.10815959 359.50798864 250.3600544 C359.50894786 248.88478878 359.5099205 247.40952317 359.51090641 245.93425757 C359.51945202 232.11499332 359.50963922 218.29578887 359.49350531 204.47653443 C359.48010288 192.63031736 359.4824312 180.7841885 359.4962616 168.93797302 C359.51233209 155.16667082 359.51862812 141.39542097 359.50942481 127.6241107 C359.5084692 126.15440592 359.50752609 124.68470113 359.50659561 123.21499634 C359.50590137 122.13043679 359.50590137 122.13043679 359.50519311 121.02396694 C359.50260762 115.93952877 359.50696467 110.85512393 359.51403427 105.77069092 C359.52334814 98.92192828 359.51667519 92.07333468 359.4993515 85.22458839 C359.49538861 82.71277454 359.49651729 80.20094666 359.5031395 77.68913841 C359.51135255 74.25720583 359.50103552 70.8258045 359.48609924 67.39390564 C359.49279141 66.40294089 359.49948357 65.41197614 359.50637853 64.39098215 C359.43209332 55.57443463 357.57955398 46.80086202 351.10514832 40.38768005 C344.19729298 35.34619749 338.62633289 33.26639423 330.08020401 33.25625229 C328.8635774 33.25241114 327.64695078 33.24857 326.3934567 33.24461246 C325.04664177 33.24539264 323.69982689 33.24627141 322.35301208 33.24723816 C320.9196797 33.24465364 319.48634804 33.24164024 318.05301738 33.23823476 C314.11393834 33.23017178 310.17487752 33.22837558 306.23579121 33.22763729 C301.98753687 33.22578553 297.73929197 33.2182376 293.49104309 33.21150208 C284.20177623 33.19792352 274.91251369 33.19189486 265.62323856 33.18749142 C259.82278159 33.18472836 254.02232627 33.18049091 248.22187042 33.17598724 C232.16128265 33.16379553 216.10069621 33.15349581 200.04010391 33.15011215 C199.01231486 33.14989259 197.98452581 33.14967302 196.92559163 33.1494468 C195.38022823 33.14911938 195.38022823 33.14911938 193.80364537 33.14878535 C191.71599531 33.14834189 189.62834525 33.14789532 187.54069519 33.14744568 C186.50514955 33.14722425 185.46960391 33.14700282 184.4026781 33.14677468 C167.62195332 33.14282639 150.84127196 33.12537099 134.06056395 33.10208616 C116.8310614 33.07837158 99.60158063 33.06591026 82.37206149 33.06474423 C72.69870816 33.06382757 63.02541141 33.05807732 53.35207367 33.03992462 C45.1153641 33.02452226 36.87872861 33.019404 28.64200738 33.02766272 C24.44039898 33.03156865 20.23893974 33.03064242 16.0373497 33.01660538 C12.18811141 33.00386321 8.33913433 33.00506665 4.48989639 33.01719609 C3.1002558 33.01915254 1.7105967 33.01607704 0.32098213 33.00735173 C-10.00719919 32.94662735 -20.23413929 33.65383436 -27.89485168 41.38768005 Z " fill="#000000" transform="translate(93.89485168457031,25.612319946289063)"/>
<path d="M0 0 C4.18954635 2.44583092 6.43555484 4.68926444 8.68359375 9.05078125 C9.0443573 11.70210266 9.0443573 11.70210266 9.02416992 14.57543945 C9.02394333 15.6561824 9.02371674 16.73692535 9.02348328 17.85041809 C9.00799942 19.00579575 8.99251556 20.1611734 8.9765625 21.3515625 C8.97231766 22.54307419 8.96807281 23.73458588 8.96369934 24.96220398 C8.94692468 28.76279421 8.90927334 32.56285163 8.87109375 36.36328125 C8.85604541 38.94204963 8.84235726 41.52082633 8.83007812 44.09960938 C8.79702502 50.41684805 8.74683694 56.73377658 8.68359375 63.05078125 C9.65292847 63.03412666 9.65292847 63.03412666 10.6418457 63.01713562 C17.39048388 62.90619677 24.13886144 62.83097061 30.88818359 62.77612305 C33.40424122 62.75103692 35.92022638 62.71696 38.43603516 62.67358398 C42.06040361 62.61267625 45.68380544 62.58451105 49.30859375 62.5625 C50.42661377 62.53669357 51.54463379 62.51088715 52.6965332 62.48429871 C59.63083149 62.48182932 64.37017777 63.41610965 69.68359375 68.05078125 C73.31453485 72.54452023 73.18593469 76.58621933 73.03515625 82.171875 C72.40066885 87.36762184 69.89529646 89.92995625 66.18359375 93.36328125 C62.33827589 95.95887081 59.12451969 96.17563503 54.54785156 96.16430664 C53.52709534 96.16423111 52.50633911 96.16415558 51.45465088 96.16407776 C50.35973328 96.15891647 49.26481567 96.15375519 48.13671875 96.1484375 C47.01038025 96.14702255 45.88404175 96.1456076 44.72357178 96.14414978 C41.1268854 96.13855324 37.53026131 96.12600135 33.93359375 96.11328125 C31.49479257 96.1082658 29.05599041 96.10370297 26.6171875 96.09960938 C20.63930167 96.08858495 14.66145216 96.07185023 8.68359375 96.05078125 C8.69691742 97.0267778 8.69691742 97.0267778 8.71051025 98.02249146 C8.79910209 104.80331627 8.85937748 111.58397629 8.90332031 118.36523438 C8.9234178 120.89492472 8.95070043 123.42456871 8.98535156 125.95410156 C9.03394931 129.59321542 9.05658187 133.23171425 9.07421875 136.87109375 C9.10518646 138.56360764 9.10518646 138.56360764 9.13677979 140.29031372 C9.13856151 146.5452788 8.91795783 150.31694454 4.68359375 155.05078125 C0.47003236 158.94832553 -2.09064037 159.8859097 -7.69140625 160.30078125 C-12.30263764 159.98276529 -15.46154038 158.92564568 -18.765625 155.5859375 C-22.26933807 151.47986688 -23.44250108 149.26280044 -23.42993164 143.95849609 C-23.42985611 142.8975473 -23.42978058 141.83659851 -23.42970276 140.74349976 C-23.42454147 139.59451202 -23.41938019 138.44552429 -23.4140625 137.26171875 C-23.41264755 136.08815826 -23.4112326 134.91459778 -23.40977478 133.70547485 C-23.40416314 129.9455514 -23.39160863 126.1856868 -23.37890625 122.42578125 C-23.37389275 119.88151127 -23.36932958 117.33724037 -23.36523438 114.79296875 C-23.35418993 108.54555272 -23.33744043 102.29817119 -23.31640625 96.05078125 C-24.27361069 96.060774 -24.27361069 96.060774 -25.25015259 96.07096863 C-31.90125482 96.13741974 -38.55226249 96.18262259 -45.20361328 96.21557617 C-47.68477205 96.23064787 -50.16590424 96.25110871 -52.64697266 96.27709961 C-56.21653814 96.31355292 -59.78575086 96.33052417 -63.35546875 96.34375 C-65.01517197 96.36697578 -65.01517197 96.36697578 -66.70840454 96.39067078 C-73.12715054 96.39206844 -78.03893095 96.11027719 -82.9609375 91.515625 C-87.70101051 85.31706799 -88.19111349 80.8237479 -87.31640625 73.05078125 C-85.69934309 69.04994394 -83.5250059 66.86003943 -79.97265625 64.48144531 C-74.68216916 62.41131615 -69.76636871 62.68055876 -64.13671875 62.7578125 C-62.96881805 62.76205734 -61.80091736 62.76630219 -60.59762573 62.77067566 C-56.87864839 62.78742725 -53.16021898 62.82507427 -49.44140625 62.86328125 C-46.91537243 62.87833258 -44.38933008 62.8920202 -41.86328125 62.90429688 C-35.6808036 62.93731933 -29.49864408 62.98748434 -23.31640625 63.05078125 C-23.33306084 62.0593235 -23.33306084 62.0593235 -23.35005188 61.0478363 C-23.4608776 54.15336655 -23.53617036 47.25915083 -23.59106445 40.36401367 C-23.61617097 37.79262001 -23.65026308 35.22129745 -23.69360352 32.65014648 C-23.75442081 28.94887728 -23.78265603 25.24855361 -23.8046875 21.546875 C-23.83049393 20.40181992 -23.85630035 19.25676483 -23.88288879 18.07701111 C-23.88535687 11.01505996 -23.17386144 7.2814372 -18.31640625 2.05078125 C-12.94157731 -1.82409543 -6.14784851 -2.51927013 0 0 Z " fill="#000000" transform="translate(263.31640625,133.94921875)"/>
</svg>
